<svg version="1.1" xmlns="http://www.w3.org/2000/svg" xmlns:xlink="http://www.w3.org/1999/xlink" width="512.000000pt" height="512.000000pt" viewBox="0,0,256,256"><g fill="#6d5ace" fill-rule="nonzero" stroke="none" stroke-width="1" stroke-linecap="butt" stroke-linejoin="miter" stroke-miterlimit="10" stroke-dasharray="" stroke-dashoffset="0" font-family="none" font-weight="none" font-size="none" text-anchor="none" style="mix-blend-mode: normal"><g transform="translate(-0.02078,-0.04872) scale(0.5,0.5)"><g transform="translate(0,512) scale(0.1,-0.1)"><path d="M1105,4675c-305,-69 -537,-278 -638,-575l-32,-95l-3,-1412c-3,-1546 -5,-1467 57,-1628c41,-107 100,-195 190,-286c91,-90 179,-149 286,-190c161,-62 82,-60 1628,-57l1412,3l95,33c141,49 231,104 330,202c100,99 158,183 201,295c61,158 59,84 59,1595c0,1511 2,1437 -59,1595c-43,112 -101,196 -201,295c-99,98 -189,153 -330,202l-95,33l-1420,2c-1164,1 -1431,-1 -1480,-12zM3904,4260c183,-30 326,-173 356,-356c13,-79 13,-2609 0,-2688c-30,-183 -173,-326 -356,-356c-79,-13 -2609,-13 -2688,0c-183,30 -326,173 -356,356c-13,79 -13,2609 0,2688c29,178 174,326 347,356c70,11 2625,12 2697,0z"></path><path d="M1896,3570c-29,-99 -30,-217 -2,-290c4,-9 -10,-37 -33,-68c-80,-106 -112,-249 -92,-413c21,-175 71,-291 162,-381c88,-86 220,-143 401,-173l38,-6l-29,-40c-16,-21 -34,-61 -41,-88c-14,-61 -36,-72 -147,-79c-124,-7 -166,18 -276,168c-43,58 -114,102 -175,107c-26,2 -53,0 -61,-5c-19,-13 0,-45 43,-71c53,-33 94,-86 139,-178c72,-150 142,-188 345,-187h122v-154c0,-154 -5,-183 -39,-209c-13,-10 65,-12 374,-12c244,0 382,4 367,9c-12,5 -27,21 -32,35c-6,15 -10,137 -10,279c0,273 -6,318 -55,389l-24,37l22,4c12,3 51,10 87,16c162,29 320,123 390,232c102,157 134,435 70,608c-12,31 -39,80 -61,109l-41,54l14,46c18,62 15,172 -7,249l-18,62h-51c-57,0 -169,-44 -266,-104l-57,-35l-54,14c-103,28 -269,39 -392,26c-61,-6 -136,-18 -166,-26l-54,-14l-56,34c-88,54 -219,105 -273,105h-47z"></path></g></g></g></svg>