<svg version="1.1" xmlns="http://www.w3.org/2000/svg" xmlns:xlink="http://www.w3.org/1999/xlink" width="512.000000pt" height="512.000000pt" viewBox="0,0,256,256"><g fill="#6b57d1" fill-rule="nonzero" stroke="none" stroke-width="1" stroke-linecap="butt" stroke-linejoin="miter" stroke-miterlimit="10" stroke-dasharray="" stroke-dashoffset="0" font-family="none" font-weight="none" font-size="none" text-anchor="none" style="mix-blend-mode: normal"><g transform="translate(-0.02078,-0.04872) scale(0.5,0.5)"><g transform="translate(0,512) scale(0.1,-0.1)"><path d="M1105,4675c-305,-69 -537,-278 -638,-575l-32,-95l-3,-1412c-3,-1546 -5,-1467 57,-1628c41,-107 100,-195 190,-286c91,-90 179,-149 286,-190c161,-62 82,-60 1628,-57l1412,3l95,33c141,49 231,104 330,202c100,99 158,183 201,295c61,158 59,84 59,1595c0,1511 2,1437 -59,1595c-43,112 -101,196 -201,295c-99,98 -189,153 -330,202l-95,33l-1420,2c-1164,1 -1431,-1 -1480,-12zM3904,4260c183,-30 326,-173 356,-356c13,-79 13,-2609 0,-2688c-30,-183 -173,-326 -356,-356c-79,-13 -2609,-13 -2688,0c-183,30 -326,173 -356,356c-13,79 -13,2609 0,2688c29,178 174,326 347,356c70,11 2625,12 2697,0z"></path><path d="M1660,3555c-123,-39 -192,-165 -156,-287c33,-113 119,-173 246,-171c113,1 189,43 232,127c30,57 30,155 0,212c-56,109 -192,159 -322,119z"></path><path d="M2984,2925c-106,-23 -187,-73 -254,-157l-39,-50l-3,94l-3,93h-225h-225l-3,-687l-2,-688h230h230v416c0,297 3,429 12,458c8,27 32,61 68,97c48,49 64,58 112,68c125,26 219,-24 266,-142c14,-36 17,-100 20,-469l3,-428h230h229v400c0,221 -5,444 -11,496c-11,107 -43,209 -85,281c-103,176 -329,266 -550,218z"></path><path d="M1520,2220v-690h230h230l-2,688l-3,687l-227,3l-228,2z"></path></g></g></g></svg>