<svg version="1.1" xmlns="http://www.w3.org/2000/svg" xmlns:xlink="http://www.w3.org/1999/xlink" width="512.000000pt" height="512.000000pt" viewBox="0,0,256,256"><g fill="#6d5ace" fill-rule="nonzero" stroke="none" stroke-width="1" stroke-linecap="butt" stroke-linejoin="miter" stroke-miterlimit="10" stroke-dasharray="" stroke-dashoffset="0" font-family="none" font-weight="none" font-size="none" text-anchor="none" style="mix-blend-mode: normal"><g transform="translate(-0.02078,-0.04872) scale(0.5,0.5)"><g transform="translate(0,512) scale(0.1,-0.1)"><path d="M1105,4675c-305,-69 -537,-278 -638,-575l-32,-95l-3,-1412c-3,-1546 -5,-1467 57,-1628c41,-107 100,-195 190,-286c91,-90 179,-149 286,-190c161,-62 82,-60 1628,-57l1412,3l95,33c141,49 231,104 330,202c100,99 158,183 201,295c61,158 59,84 59,1595c0,1511 2,1437 -59,1595c-43,112 -101,196 -201,295c-99,98 -189,153 -330,202l-95,33l-1420,2c-1164,1 -1431,-1 -1480,-12zM3904,4260c183,-30 326,-173 356,-356c13,-79 13,-2609 0,-2688c-30,-183 -173,-326 -356,-356c-79,-13 -2609,-13 -2688,0c-183,30 -326,173 -356,356c-13,79 -13,2609 0,2688c29,178 174,326 347,356c70,11 2625,12 2697,0z"></path><path d="M2455,3620c-272,-36 -509,-193 -640,-425c-118,-210 -136,-441 -54,-695c55,-170 215,-445 369,-636c92,-113 254,-272 330,-323c57,-37 70,-42 106,-38c59,6 142,65 264,187c189,188 336,390 445,613c160,327 175,581 50,843c-125,261 -373,437 -665,473c-93,12 -117,12 -205,1zM2705,3335c448,-115 604,-665 281,-990c-121,-121 -260,-179 -431,-179c-173,0 -305,54 -426,174c-155,155 -212,357 -159,565c54,210 216,371 431,429c72,20 230,20 304,1z"></path><path d="M2535,3198c32,-59 39,-108 25,-170c-17,-70 -93,-148 -163,-167c-87,-25 -184,4 -245,73c-17,20 -34,36 -36,36c-15,0 -46,-140 -46,-210c0,-270 213,-480 485,-480c269,0 486,212 485,474c-1,133 -39,231 -125,324c-93,100 -224,160 -352,161l-52,1z"></path></g></g></g></svg>