<svg version="1.1" xmlns="http://www.w3.org/2000/svg" xmlns:xlink="http://www.w3.org/1999/xlink" width="512.000000pt" height="512.000000pt" viewBox="0,0,256,256"><g fill="#6d5ace" fill-rule="nonzero" stroke="none" stroke-width="1" stroke-linecap="butt" stroke-linejoin="miter" stroke-miterlimit="10" stroke-dasharray="" stroke-dashoffset="0" font-family="none" font-weight="none" font-size="none" text-anchor="none" style="mix-blend-mode: normal"><g transform="translate(-0.02078,-0.04872) scale(0.5,0.5)"><g transform="translate(0,512) scale(0.1,-0.1)"><path d="M1105,4675c-305,-69 -537,-278 -638,-575l-32,-95l-3,-1412c-3,-1546 -5,-1467 57,-1628c41,-107 100,-195 190,-286c91,-90 179,-149 286,-190c161,-62 82,-60 1628,-57l1412,3l95,33c141,49 231,104 330,202c100,99 158,183 201,295c61,158 59,84 59,1595c0,1511 2,1437 -59,1595c-43,112 -101,196 -201,295c-99,98 -189,153 -330,202l-95,33l-1420,2c-1164,1 -1431,-1 -1480,-12zM3904,4260c183,-30 326,-173 356,-356c13,-79 13,-2609 0,-2688c-30,-183 -173,-326 -356,-356c-79,-13 -2609,-13 -2688,0c-183,30 -326,173 -356,356c-13,79 -13,2609 0,2688c29,178 174,326 347,356c70,11 2625,12 2697,0z"></path><path d="M2581,3604c-25,-32 -28,-96 -6,-118c19,-19 29,-22 145,-41c119,-20 255,-65 340,-112c85,-47 216,-178 263,-263c63,-114 107,-270 126,-450c8,-73 13,-88 36,-107c35,-31 79,-30 112,3l25,26l-5,141c-6,161 -24,240 -86,373c-160,341 -500,574 -837,574c-88,0 -94,-1 -113,-26z"></path><path d="M1735,3481c-93,-45 -173,-122 -208,-198c-19,-41 -22,-66 -22,-163c0,-134 5,-150 135,-415c198,-405 478,-735 845,-997c128,-91 207,-139 358,-218c173,-90 244,-114 321,-107c169,15 373,211 393,378c8,67 -16,125 -76,184c-79,78 -321,254 -379,275c-104,39 -189,18 -258,-65c-66,-80 -81,-94 -108,-101c-42,-10 -86,3 -171,51c-171,97 -293,223 -376,388c-76,152 -69,205 39,289c77,59 107,118 99,190c-16,129 -256,472 -370,527c-68,33 -127,28 -222,-18z"></path><path d="M2654,3343c-32,-6 -55,-36 -61,-80c-7,-50 23,-90 75,-98c144,-25 275,-79 346,-146c77,-70 129,-200 151,-378c9,-65 32,-91 81,-91c77,0 101,45 90,174c-20,242 -178,463 -401,561c-84,38 -231,68 -281,58z"></path><path d="M2674,3036c-22,-10 -36,-25 -44,-50c-21,-65 6,-99 96,-123c32,-8 71,-24 86,-35c36,-25 67,-85 75,-145c7,-53 47,-103 82,-103c66,0 95,47 89,142c-5,78 -34,141 -98,211c-86,94 -209,138 -286,103z"></path></g></g></g></svg>